# AST/ASF file generated using VICON BodyLanguage
# -----------------------------------------------
:version 1.10
:name VICON
:units
  mass 1.0
  length 0.45
  angle deg
:documentation
   .ast/.asf automatically generated from VICON data using
   VICON BodyBuilder and BodyLanguage model FoxedUp or BRILLIANT.MOD
:root
   order TX TY TZ RX RY RZ
   axis XYZ
   position 0 0 0  
   orientation 0 0 0 
:bonedata
  begin
     id 1 
     name lhipjoint
     direction 0.645893 -0.654526 0.392961 
     length 2.38111 
     axis 0 0 0  XYZ
  end
  begin
     id 2 
     name lfemur
     direction 0.34202 -0.939693 0  
     length 6.6822  
     axis 0 0 20  XYZ
    dof rx ry rz
    limits (-160.0 20.0)
           (-70.0 70.0)
           (-60.0 70.0)
  end
  begin
     id 3 
     name ltibia
     direction 0.34202 -0.939693 0   
     length 6.93904   
     axis 0 0 20   XYZ
    dof rx
    limits (-10.0 170.0)
  end
  begin
     id 4 
     name lfoot
     direction 0.0694967 -0.190941 0.979138   
     length 2.13616   
     axis -90 7.62852e-016 20   XYZ
    dof rx rz
    limits (-45.0 90.0)
           (-70.0 20.0)
  end
  begin
     id 5 
     name ltoes
     direction 1.535e-011 -4.2202e-011 1   
     length 1.07536   
     axis -90 7.62852e-016 20   XYZ
    dof rx
    limits (-90.0 20.0)
  end
  begin
     id 6 
     name rhipjoint
     direction -0.700219 -0.612087 0.367481   
     length 2.54621  
     axis 0 0 0  XYZ 
  end
  begin
     id 7 
     name rfemur
     direction -0.34202 -0.939693 0   
     length 6.55353   
     axis 0 0 -20   XYZ
    dof rx ry rz
    limits (-160.0 20.0)
           (-70.0 70.0)
           (-70.0 60.0)
  end
  begin
     id 8 
     name rtibia
     direction -0.34202 -0.939693 0   
     length 6.8736   
     axis 0 0 -20   XYZ
    dof rx
    limits (-10.0 170.0)
 end
 begin
     id 9 
     name rfoot
     direction -0.0679995 -0.186827 0.980037   
     length 2.1218  
     axis -90 -7.62852e-016 -20   XYZ
    dof rx rz
    limits (-45.0 90.0)
           (-20.0 70.0)
  end
  begin
     id 10 
     name rtoes
     direction -1.53589e-011 -4.21772e-011 1   
     length 1.06864   
     axis -90 -7.62852e-016 -20   XYZ
    dof rx
    limits (-90.0 20.0)
  end
  begin
     id 11 
     name lowerback
     direction -0.0416607 0.996347 -0.0745409   
     length 2.12205   
     axis 0 0 0   XYZ
    dof rx ry rz
    limits (-20.0 45.0)
           (-30.0 30.0)
           (-30.0 30.0)
  end
  begin
     id 12 
     name upperback
     direction -0.000153993 0.999276 -0.0380568   
     length 2.12759   
     axis 0 0 0   XYZ
    dof rx ry rz
    limits (-20.0 45.0)
           (-30.0 30.0)
           (-30.0 30.0)
  end
  begin
     id 13 
     name thorax
     direction 0.0187671 0.999821 -0.00241421   
     length 2.13704   
     axis 0 0 0   XYZ
    dof rx ry rz
    limits (-20.0 45.0)
           (-30.0 30.0)
           (-30.0 30.0)
  end
  begin
     id 14 
     name lowerneck
     direction 0.0268157 0.964865 0.261374   
     length 1.65253   
     axis 0 0 0   XYZ
    dof rx ry rz
    limits (-20.0 45.0)
           (-30.0 30.0)
           (-30.0 30.0)
  end
  begin
     id 15 
     name upperneck
     direction 0.00263774 0.939908 -0.341418   
     length 1.72375   
     axis 0 0 0   XYZ
    dof rx ry rz
    limits (-20.0 45.0)
           (-30.0 30.0)
           (-30.0 30.0)
  end
  begin
     id 16
     name head
     direction -0.00526001 0.989001 -0.147818  
     length 1.74878  
     axis 0 0 0   XYZ
    dof rx ry rz
    limits (-20.0 45.0)
           (-30.0 30.0)
           (-30.0 30.0)
  end
  begin
     id 17 
     name lclavicle
     direction 0.881214 0.461162 -0.103884  
     length 3.25108  
     axis 0 0 0   XYZ
    dof ry rz
    limits (-20.0 10.0)
           (0.0 20.0)
  end
  begin
     id 18 
     name lhumerus
     direction 1 -4.4899e-011 3.38092e-027   
     length 4.87408   
     axis 180 -30 -90   XYZ
    dof rx ry rz
    limits (-60.0 90.0)
           (-90.0 90.0)
           (-90.0 90.0)
  end
  begin
     id 19
     name lradius
     direction 1 -4.48931e-011 9.96288e-027   
     length 2.76729   
     axis 180 -30 -90   XYZ
    dof rx
    limits (-10.0 170.0)
  end
  begin
     id 20
     name lwrist
     direction 1 -4.4896e-011 1.50617e-026   
     length 1.38364   
     axis -9.31234e-015 90 90   XYZ
    dof ry
    limits (-180.0 0.0)
 end
  begin
     id 21 
     name lhand
     direction 1 -4.49038e-011 3.01286e-026   
     length 0.98922   
     axis -1.92217e-014 90 90   XYZ
    dof rx rz
    limits (-90.0 90.0)
           (-45.0 45.0)
  end
  begin
     id 22 
     name lfingers
     direction 1 -4.49051e-011 6.02588e-026   
     length 0.797535   
     axis -3.84436e-014 90 90   XYZ
    dof rx
    limits (0.0 90.0)
  end
  begin
     id 23
     name lthumb
     direction 0.707107 -6.34901e-011 0.707107   
     length 1.14511   
     axis -90 45 2.19363e-014   XYZ
    dof rx rz
    limits (-45.0 45.0)
           (-45.0 45.0)
  end
  begin
     id 24 
     name rclavicle
     direction -0.893894 0.441652 -0.0767889   
     length 3.29361  
     axis 0 0 0   XYZ 
    dof ry rz
    limits (-10.0 20.0)
           (-20.0 0.0)
  end
  begin
     id 25 
     name rhumerus
     direction -1 -4.48945e-011 8.0491e-028  
     length 4.71404   
     axis 180 30 90   XYZ
    dof rx ry rz
    limits (-90.0 60.0)
           (-90.0 90.0)
           (-90.0 90.0)
  end
  begin
     id 26 
     name rradius
     direction -1 -4.48986e-011 9.27795e-027   
     length 2.83468   
     axis 180 30 90   XYZ
    dof rx
    limits (-10.0 170.0)
  end
  begin
     id 27 
     name rwrist
     direction -1 -4.49029e-011 1.5064e-026   
     length 1.41734   
     axis -9.31234e-015 -90 -90   XYZ
    dof ry
    limits (-180.0 0.0)
  end
  begin
     id 28
     name rhand
     direction -1 -4.48857e-011 3.01165e-026   
     length 0.868195   
     axis -1.92217e-014 -90 -90   XYZ
    dof rx rz
    limits (-90.0 90.0)
           (-45.0 45.0)
  end
  begin
     id 29
     name rfingers
     direction -1 -4.49048e-011 6.02585e-026   
     length 0.699961   
     axis -3.84436e-014 -90 -90   XYZ
    dof rx
    limits (0.0 90.0)
  end
  begin
     id 30
     name rthumb
     direction -0.707107 -6.34854e-011 0.707107   
     length 1.00501   
     axis -90 -45 -2.19363e-014   XYZ
    dof rx rz
    limits (-45.0 45.0)
           (-45.0 45.0)
  end
:hierarchy
  begin
    root lhipjoint rhipjoint lowerback
    lhipjoint lfemur
    lfemur ltibia
    ltibia lfoot
    lfoot ltoes
    rhipjoint rfemur
    rfemur rtibia
    rtibia rfoot
    rfoot rtoes
    lowerback upperback
    upperback thorax
    thorax lowerneck lclavicle rclavicle
    lowerneck upperneck
    upperneck head
    lclavicle lhumerus
    lhumerus lradius
    lradius lwrist
    lwrist lhand lthumb
    lhand lfingers
    rclavicle rhumerus
    rhumerus rradius
    rradius rwrist
    rwrist rhand rthumb
    rhand rfingers
  end

#!OML:ASF H:\ManfredObstacles\Project 1\Capture day 2\Session 1\male.ASF
:FULLY-SPECIFIED
:DEGREES
87
root 1.82234 9.62507 23.7611 -172.269 -11.229 180.627
lowerback 38.1184 4.84649 -3.4484
upperback 13.9043 0.275437 0.16757
thorax -3.36212 -1.7941 1.96515
lowerneck -36.6493 -4.20437 -3.14654
upperneck 27.566 -7.24718 7.27962
head 16.3902 -2.19381 1.96931
rclavicle -2.46493e-014 1.74931e-014
rhumerus -1.57662 4.57339 -80.3021
rradius 36.3408
rwrist 32.5396
rhand -12.168 -2.00668
rfingers 7.12502
rthumb 13.8951 -31.5225
lclavicle -2.46493e-014 1.74931e-014
lhumerus 4.04551 -18.7555 75.8369
lradius 37.5547
lwrist -37.7977
lhand -13.3822 5.2546
lfingers 7.12502
lthumb 12.7248 34.8469
rfemur -85.0197 2.06357 23.4038
rtibia 116.156
rfoot -29.5522 -26.9701
rtoes -13.5207
lfemur -83.0029 1.91777 -24.7213
ltibia 119.643
lfoot -19.0892 31.3114
ltoes -8.38003
88
root 1.84524 9.49809 23.7098 -172.278 -11.2439 180.6
lowerback 38.8779 4.97094 -3.43384
upperback 13.9756 0.285405 0.17638
thorax -3.52348 -1.82784 1.96503
lowerneck -36.5659 -4.24635 -3.16706
upperneck 27.1891 -7.29665 7.41719
head 16.2063 -2.20133 2.01438
rclavicle 1.23246e-014 9.93923e-015
rhumerus -1.51144 4.6678 -80.2595
rradius 36.6213
rwrist 32.766
rhand -12.4057 -1.94718
rfingers 7.12502
rthumb 13.666 -31.4785
lclavicle 1.23246e-014 9.93923e-015
lhumerus 4.41137 -18.9728 75.5276
lradius 38.1339
lwrist -37.7914
lhand -13.5923 5.21359
lfingers 7.12502
lthumb 12.5222 34.8184
rfemur -85.7911 1.89254 23.7453
rtibia 117.526
rfoot -29.9889 -26.9019
rtoes -13.6024
lfemur -83.7144 2.3478 -24.7435
ltibia 121.077
lfoot -19.5768 31.316
ltoes -8.70048
89
root 1.86655 9.37384 23.6598 -172.322 -11.1872 180.642
lowerback 39.648 5.11963 -3.38552
upperback 14.0622 0.326434 0.202122
thorax -3.66658 -1.8512 1.95399
lowerneck -36.4955 -4.28437 -3.20126
upperneck 26.8154 -7.32988 7.54852
head 16.0274 -2.20475 2.06261
rclavicle 2.62396e-014 -5.1684e-015
rhumerus -1.39931 4.85462 -80.1711
rradius 36.9193
rwrist 32.8784
rhand -12.6806 -1.91378
rfingers 7.12502
rthumb 13.4011 -31.4628
lclavicle 2.62396e-014 -5.1684e-015
lhumerus 4.78726 -19.111 75.2483
lradius 38.7165
lwrist -37.805
lhand -13.8508 5.15212
lfingers 7.12502
lthumb 12.273 34.772
rfemur -86.4148 1.8299 24.1343
rtibia 118.798
rfoot -30.6131 -26.8725
rtoes -13.673
lfemur -84.3899 2.93526 -24.7211
ltibia 122.496
lfoot -20.1421 31.2744
ltoes -8.95744
90
root 1.88581 9.25183 23.6107 -172.36 -11.0778 180.736
lowerback 40.3764 5.28147 -3.31692
upperback 14.1634 0.390076 0.245103
thorax -3.77618 -1.8663 1.94177
lowerneck -36.426 -4.30728 -3.22668
upperneck 26.4073 -7.32564 7.64136
head 15.8285 -2.19846 2.1007
rclavicle 1.19271e-015 7.95139e-015
rhumerus -1.21747 5.14245 -80.017
rradius 37.2072
rwrist 32.901
rhand -12.9748 -1.90723
rfingers 7.12502
rthumb 13.1175 -31.4747
lclavicle 1.19271e-015 7.95139e-015
lhumerus 5.16664 -19.1792 75.0089
lradius 39.3053
lwrist -37.7975
lhand -14.1525 5.07702
lfingers 7.12502
lthumb 11.9821 34.7141
rfemur -86.9506 1.85286 24.5531
rtibia 119.996
rfoot -31.435 -26.8292
rtoes -13.6101
lfemur -85.0754 3.63713 -24.6678
ltibia 123.899
lfoot -20.7584 31.1943
ltoes -9.14856
91
root 1.90279 9.13127 23.5626 -172.351 -10.9684 180.857
lowerback 41.0296 5.43077 -3.23192
upperback 14.2665 0.456901 0.305723
thorax -3.85637 -1.87786 1.93794
lowerneck -36.341 -4.3041 -3.19173
upperneck 25.9663 -7.28497 7.65776
head 15.6033 -2.18376 2.10367
rclavicle -3.22031e-014 3.81667e-014
rhumerus -0.985174 5.49072 -79.813
rradius 37.4712
rwrist 32.8576
rhand -13.3239 -1.91336
rfingers 7.12502
rthumb 12.7809 -31.5021
lclavicle -3.22031e-014 3.81667e-014
lhumerus 5.528 -19.1894 74.8231
lradius 39.8866
lwrist -37.8097
lhand -14.53 5.02491
lfingers 7.12502
lthumb 11.618 34.6828
rfemur -87.491 1.88663 24.9973
rtibia 121.143
rfoot -32.3286 -26.8131
rtoes -13.462
lfemur -85.8188 4.35164 -24.5958
ltibia 125.278
lfoot -21.3266 31.1201
ltoes -9.34328
92
root 1.91778 9.0115 23.5149 -172.287 -10.8638 180.97
lowerback 41.596 5.57025 -3.16124
upperback 14.3764 0.518184 0.374719
thorax -3.89999 -1.8909 1.95151
lowerneck -36.2902 -4.27031 -3.08035
upperneck 25.5267 -7.20994 7.5856
head 15.3766 -2.15979 2.06445
rclavicle -1.47101e-014 -2.16675e-014
rhumerus -0.696328 5.84722 -79.5824
rradius 37.7031
rwrist 32.8424
rhand -13.7068 -1.91701
rfingers 7.12502
rthumb 12.4118 -31.5285
lclavicle -1.47101e-014 -2.16675e-014
lhumerus 5.86975 -19.1424 74.6816
lradius 40.4606
lwrist -37.86
lhand -14.9844 4.96861
lfingers 7.12502
lthumb 11.1798 34.6508
rfemur -88.0876 1.90535 25.4363
rtibia 122.282
rfoot -33.2682 -26.7568
rtoes -13.1949
lfemur -86.6138 5.03997 -24.5318
ltibia 126.629
lfoot -21.8457 31.0704
ltoes -9.54025
93
root 1.93119 8.89237 23.4674 -172.165 -10.7844 181.035
lowerback 42.0876 5.69158 -3.11978
upperback 14.4881 0.557256 0.437943
thorax -3.91659 -1.91237 1.9816
lowerneck -36.2284 -4.20748 -2.90048
upperneck 25.0848 -7.11332 7.4563
head 15.1419 -2.12973 1.99525
rclavicle -8.74653e-015 2.40529e-014
rhumerus -0.394216 6.16323 -79.3648
rradius 37.924
rwrist 32.9033
rhand -14.1226 -1.89325
rfingers 7.12502
rthumb 12.0109 -31.5286
lclavicle -8.74653e-015 2.40529e-014
lhumerus 6.17058 -19.0599 74.5706
lradius 41.0437
lwrist -37.9344
lhand -15.5148 4.95532
lfingers 7.12502
lthumb 10.6682 34.6645
rfemur -88.7771 1.86713 25.8383
rtibia 123.439
rfoot -34.1433 -26.6823
rtoes -12.9244
lfemur -87.4441 5.64574 -24.5092
ltibia 127.945
lfoot -22.2886 31.0687
ltoes -9.75718
94
root 1.94302 8.77394 23.4202 -172.009 -10.7707 181.047
lowerback 42.5326 5.77192 -3.08193
upperback 14.6001 0.553417 0.492487
thorax -3.91556 -1.95117 2.02024
lowerneck -36.1345 -4.13809 -2.71879
upperneck 24.6624 -7.01475 7.32624
head 14.9129 -2.10017 1.92697
rclavicle -9.93923e-015 1.55052e-014
rhumerus -0.0881316 6.4258 -79.1796
rradius 38.1337
rwrist 33.0342
rhand -14.5749 -1.86579
rfingers 7.12502
rthumb 11.5747 -31.5262
lclavicle -9.93923e-015 1.55052e-014
lhumerus 6.43121 -18.9575 74.4759
lradius 41.6255
lwrist -38.0217
lhand -16.1223 4.96088
lfingers 7.12502
lthumb 10.0822 34.6994
rfemur -89.5491 1.70648 26.2044
rtibia 124.628
rfoot -34.9215 -26.5763
rtoes -12.7382
lfemur -88.283 6.10877 -24.5286
ltibia 129.223
lfoot -22.6561 31.1211
ltoes -9.99295
95
root 1.95519 8.65695 23.373 -171.858 -10.7662 181.02
lowerback 42.9846 5.85538 -3.08306
upperback 14.7109 0.53517 0.54569
thorax -3.91546 -1.99884 2.08286
lowerneck -36.0557 -4.0709 -2.55475
upperneck 24.2809 -6.92082 7.20757
head 14.7092 -2.07199 1.86657
rclavicle -1.59028e-014 7.35503e-015
rhumerus 0.202677 6.61116 -79.0462
rradius 38.3482
rwrist 33.3152
rhand -15.0609 -1.79855
rfingers 7.12502
rthumb 11.106 -31.4847
lclavicle -1.59028e-014 7.35503e-015
lhumerus 6.65367 -18.837 74.3876
lradius 42.2144
lwrist -38.096
lhand -16.7937 4.97869
lfingers 7.12502
lthumb 9.43442 34.7475
rfemur -90.3475 1.51957 26.5391
rtibia 125.834
rfoot -35.5887 -26.4628
rtoes -12.6564
lfemur -89.075 6.56129 -24.5815
ltibia 130.464
lfoot -23.043 31.1795
ltoes -10.2181
96
root 1.96852 8.54171 23.3254 -171.729 -10.7495 180.97
lowerback 43.4503 5.95674 -3.14857
upperback 14.8206 0.507551 0.614797
thorax -3.91879 -2.05623 2.19881
lowerneck -35.9549 -4.00254 -2.44997
upperneck 23.9343 -6.81191 7.12354
head 14.5224 -2.03831 1.83463
rclavicle 3.29983e-014 1.49089e-014
rhumerus 0.488924 6.83552 -78.9179
rradius 38.5874
rwrist 33.6026
rhand -15.5875 -1.71813
rfingers 7.12502
rthumb 10.5981 -31.4309
lclavicle 3.29983e-014 1.49089e-014
lhumerus 6.82872 -18.6572 74.325
lradius 42.8022
lwrist -38.1381
lhand -17.4969 5.01688
lfingers 7.12502
lthumb 8.75587 34.8153
rfemur -91.1375 1.35926 26.8539
rtibia 127.038
rfoot -36.1496 -26.3847
rtoes -12.6821
lfemur -89.8049 7.08518 -24.6684
ltibia 131.677
lfoot -23.4794 31.2296
ltoes -10.4331
97
root 1.98292 8.42858 23.2779 -171.627 -10.7163 180.924
lowerback 43.9359 6.07706 -3.24935
upperback 14.9336 0.480297 0.702444
thorax -3.92194 -2.11888 2.35226
lowerneck -35.8659 -3.93016 -2.37884
upperneck 23.5994 -6.68067 7.03761
head 14.3443 -1.99811 1.81279
rclavicle 2.5842e-014 -1.19271e-014
rhumerus 0.777777 7.09062 -78.7916
rradius 38.8532
rwrist 33.8697
rhand -16.1674 -1.62068
rfingers 7.12502
rthumb 10.0387 -31.3613
lclavicle 2.5842e-014 -1.19271e-014
lhumerus 6.96719 -18.4433 74.2774
lradius 43.4113
lwrist -38.133
lhand -18.2187 5.06554
lfingers 7.12502
lthumb 8.05923 34.8919
rfemur -91.8915 1.25842 27.1739
rtibia 128.22
rfoot -36.6437 -26.3772
rtoes -12.7698
lfemur -90.4812 7.73594 -24.7805
ltibia 132.862
lfoot -23.991 31.2426
ltoes -10.6288
98
root 1.9977 8.31778 23.2302 -171.543 -10.648 180.896
lowerback 44.4193 6.23241 -3.3135
upperback 15.0467 0.508452 0.770302
thorax -3.92346 -2.15282 2.44464
lowerneck -35.7136 -3.8923 -2.30496
upperneck 23.2601 -6.62039 7.00155
head 14.1617 -1.98228 1.7952
rclavicle -2.50469e-014 -1.51076e-014
rhumerus 1.01514 7.21443 -78.7016
rradius 39.1568
rwrist 34.1275
rhand -16.8048 -1.51893
rfingers 7.12502
rthumb 9.42369 -31.2882
lclavicle -2.50469e-014 -1.51076e-014
lhumerus 7.12642 -18.4024 74.1749
lradius 44.0434
lwrist -38.0109
lhand -18.9517 5.11966
lfingers 7.12502
lthumb 7.35181 34.9719
rfemur -92.5975 1.26734 27.5023
rtibia 129.367
rfoot -37.1284 -26.4432
rtoes -12.8511
lfemur -91.1233 8.58852 -24.9235
ltibia 134.039
lfoot -24.719 31.1285
ltoes -10.7016
99
root 2.01158 8.20929 23.1836 -171.465 -10.5787 180.881
lowerback 44.9113 6.38936 -3.33598
upperback 15.1523 0.556574 0.833149
thorax -3.93306 -2.17429 2.50295
lowerneck -35.4996 -3.86008 -2.2132
upperneck 22.899 -6.58195 6.97787
head 13.9618 -1.97467 1.77486
rclavicle -6.36111e-015 -1.19271e-014
rhumerus 1.20867 7.29473 -78.6205
rradius 39.5193
rwrist 34.3083
rhand -17.5121 -1.44012
rfingers 7.12502
rthumb 8.74116 -31.2391
lclavicle -6.36111e-015 -1.19271e-014
lhumerus 7.28269 -18.4651 74.0504
lradius 44.7104
lwrist -37.8126
lhand -19.7125 5.21961
lfingers 7.12502
lthumb 6.61738 35.0962
rfemur -93.2614 1.3264 27.8374
rtibia 130.475
rfoot -37.6127 -26.5902
rtoes -12.9332
lfemur -91.7514 9.56649 -25.1089
ltibia 135.197
lfoot -25.5474 30.9502
ltoes -10.7271
100
root 2.02362 8.10267 23.138 -171.38 -10.4758 180.891
lowerback 45.391 6.55934 -3.29161
upperback 15.2472 0.654587 0.870558
thorax -3.95001 -2.16491 2.48094
lowerneck -35.2675 -3.85656 -2.07951
upperneck 22.5579 -6.61501 6.97172
head 13.7726 -1.99174 1.73967
rclavicle -2.78299e-015 -2.04748e-014
rhumerus 1.33791 7.25578 -78.5617
rradius 39.9336
rwrist 34.4661
rhand -18.3325 -1.38508
rfingers 7.12502
rthumb 7.94947 -31.2156
lclavicle -2.78299e-015 -2.04748e-014
lhumerus 7.45571 -18.6933 73.883
lradius 45.4092
lwrist -37.577
lhand -20.4939 5.33304
lfingers 7.12502
lthumb 5.86297 35.2319
rfemur -93.9016 1.49797 28.1684
rtibia 131.54
rfoot -38.1031 -26.8145
rtoes -12.9941
lfemur -92.3889 10.7385 -25.344
ltibia 136.344
lfoot -26.531 30.6784
ltoes -10.6759
